<mxfile host="app.diagrams.net" modified="2023-04-15T09:06:05.536Z" agent="5.0 (Windows NT 10.0; Win64; x64) AppleWebKit/537.36 (KHTML, like Gecko) Chrome/111.0.0.0 Safari/537.36" etag="iG6d82YTLwVHasm83jHr" version="20.8.20" type="github">
  <diagram name="Page-1" id="AvuTZ2LysB4CJ1qrYQsH">
    <mxGraphModel dx="1828" dy="544" grid="1" gridSize="10" guides="1" tooltips="1" connect="1" arrows="1" fold="1" page="1" pageScale="1" pageWidth="850" pageHeight="1100" math="0" shadow="0">
      <root>
        <mxCell id="0" />
        <mxCell id="1" parent="0" />
        <mxCell id="zna02HgkzmQcl8DzhKu5-2" value="" style="group" parent="1" vertex="1" connectable="0">
          <mxGeometry x="50" y="720" width="600" height="40" as="geometry" />
        </mxCell>
        <mxCell id="zna02HgkzmQcl8DzhKu5-3" value="TEST_NO" style="rounded=0;whiteSpace=wrap;html=1;container=0;" parent="zna02HgkzmQcl8DzhKu5-2" vertex="1">
          <mxGeometry width="299.99999999999994" height="40" as="geometry" />
        </mxCell>
        <mxCell id="zna02HgkzmQcl8DzhKu5-4" value="TEST_TYPE" style="rounded=0;whiteSpace=wrap;html=1;container=0;" parent="zna02HgkzmQcl8DzhKu5-2" vertex="1">
          <mxGeometry x="300" width="299.99999999999994" height="40" as="geometry" />
        </mxCell>
        <mxCell id="zna02HgkzmQcl8DzhKu5-5" value="PATIENT" style="text;strokeColor=none;fillColor=none;html=1;fontSize=24;fontStyle=1;verticalAlign=middle;align=center;" parent="1" vertex="1">
          <mxGeometry x="80" y="40" width="100" height="40" as="geometry" />
        </mxCell>
        <mxCell id="zna02HgkzmQcl8DzhKu5-6" value="DOCTOR" style="text;strokeColor=none;fillColor=none;html=1;fontSize=24;fontStyle=1;verticalAlign=middle;align=center;" parent="1" vertex="1">
          <mxGeometry x="79" y="160" width="100" height="40" as="geometry" />
        </mxCell>
        <mxCell id="zna02HgkzmQcl8DzhKu5-7" value="WARD" style="text;strokeColor=none;fillColor=none;html=1;fontSize=24;fontStyle=1;verticalAlign=middle;align=center;" parent="1" vertex="1">
          <mxGeometry x="79" y="280" width="100" height="40" as="geometry" />
        </mxCell>
        <mxCell id="zna02HgkzmQcl8DzhKu5-8" value="ACOUNTANT" style="text;strokeColor=none;fillColor=none;html=1;fontSize=24;fontStyle=1;verticalAlign=middle;align=center;" parent="1" vertex="1">
          <mxGeometry x="-10" y="390" width="180" height="40" as="geometry" />
        </mxCell>
        <mxCell id="zna02HgkzmQcl8DzhKu5-9" value="" style="group" parent="1" vertex="1" connectable="0">
          <mxGeometry x="70" y="70" width="600" height="40" as="geometry" />
        </mxCell>
        <mxCell id="zna02HgkzmQcl8DzhKu5-10" value="NAME" style="rounded=0;whiteSpace=wrap;html=1;" parent="zna02HgkzmQcl8DzhKu5-9" vertex="1">
          <mxGeometry width="120" height="40" as="geometry" />
        </mxCell>
        <mxCell id="zna02HgkzmQcl8DzhKu5-11" value="ID" style="rounded=0;whiteSpace=wrap;html=1;" parent="zna02HgkzmQcl8DzhKu5-9" vertex="1">
          <mxGeometry x="120" width="120" height="40" as="geometry" />
        </mxCell>
        <mxCell id="zna02HgkzmQcl8DzhKu5-12" value="ADDRESS" style="rounded=0;whiteSpace=wrap;html=1;" parent="zna02HgkzmQcl8DzhKu5-9" vertex="1">
          <mxGeometry x="240" width="120" height="40" as="geometry" />
        </mxCell>
        <mxCell id="zna02HgkzmQcl8DzhKu5-13" value="DATE_ADMITTED" style="rounded=0;whiteSpace=wrap;html=1;" parent="zna02HgkzmQcl8DzhKu5-9" vertex="1">
          <mxGeometry x="360" width="120" height="40" as="geometry" />
        </mxCell>
        <mxCell id="zna02HgkzmQcl8DzhKu5-14" value="DATE_DISCHARGE" style="rounded=0;whiteSpace=wrap;html=1;" parent="zna02HgkzmQcl8DzhKu5-9" vertex="1">
          <mxGeometry x="480" width="120" height="40" as="geometry" />
        </mxCell>
        <mxCell id="zna02HgkzmQcl8DzhKu5-15" value="" style="group" parent="1" vertex="1" connectable="0">
          <mxGeometry x="70" y="210" width="600" height="40" as="geometry" />
        </mxCell>
        <mxCell id="zna02HgkzmQcl8DzhKu5-16" value="DOC_NAME" style="rounded=0;whiteSpace=wrap;html=1;" parent="zna02HgkzmQcl8DzhKu5-15" vertex="1">
          <mxGeometry width="200" height="40" as="geometry" />
        </mxCell>
        <mxCell id="zna02HgkzmQcl8DzhKu5-17" value="DOC_ID" style="rounded=0;whiteSpace=wrap;html=1;" parent="zna02HgkzmQcl8DzhKu5-15" vertex="1">
          <mxGeometry x="200" width="200" height="40" as="geometry" />
        </mxCell>
        <mxCell id="zna02HgkzmQcl8DzhKu5-18" value="QUALIFICATION" style="rounded=0;whiteSpace=wrap;html=1;" parent="zna02HgkzmQcl8DzhKu5-15" vertex="1">
          <mxGeometry x="400" width="200" height="40" as="geometry" />
        </mxCell>
        <mxCell id="zna02HgkzmQcl8DzhKu5-19" value="" style="group" parent="1" vertex="1" connectable="0">
          <mxGeometry x="70" y="310" width="600" height="40" as="geometry" />
        </mxCell>
        <mxCell id="zna02HgkzmQcl8DzhKu5-20" value="WARD_ID" style="rounded=0;whiteSpace=wrap;html=1;" parent="zna02HgkzmQcl8DzhKu5-19" vertex="1">
          <mxGeometry width="300" height="40" as="geometry" />
        </mxCell>
        <mxCell id="zna02HgkzmQcl8DzhKu5-21" value="WARD_TYPE" style="rounded=0;whiteSpace=wrap;html=1;" parent="zna02HgkzmQcl8DzhKu5-19" vertex="1">
          <mxGeometry x="300" width="300" height="40" as="geometry" />
        </mxCell>
        <mxCell id="zna02HgkzmQcl8DzhKu5-22" value="" style="group" parent="1" vertex="1" connectable="0">
          <mxGeometry x="70" y="430" width="600" height="30" as="geometry" />
        </mxCell>
        <mxCell id="zna02HgkzmQcl8DzhKu5-23" value="ACC_NO" style="rounded=0;whiteSpace=wrap;html=1;" parent="zna02HgkzmQcl8DzhKu5-22" vertex="1">
          <mxGeometry width="300" height="30" as="geometry" />
        </mxCell>
        <mxCell id="zna02HgkzmQcl8DzhKu5-24" value="DESC" style="rounded=0;whiteSpace=wrap;html=1;" parent="zna02HgkzmQcl8DzhKu5-22" vertex="1">
          <mxGeometry x="300" width="300" height="30" as="geometry" />
        </mxCell>
        <mxCell id="zna02HgkzmQcl8DzhKu5-25" value="RECORD" style="text;strokeColor=none;fillColor=none;html=1;fontSize=24;fontStyle=1;verticalAlign=middle;align=center;" parent="1" vertex="1">
          <mxGeometry x="60" y="560" width="180" height="40" as="geometry" />
        </mxCell>
        <mxCell id="zna02HgkzmQcl8DzhKu5-26" value="" style="group" parent="1" vertex="1" connectable="0">
          <mxGeometry x="60" y="620" width="610" height="40" as="geometry" />
        </mxCell>
        <mxCell id="zna02HgkzmQcl8DzhKu5-27" value="RECORD_NO" style="rounded=0;whiteSpace=wrap;html=1;container=0;" parent="zna02HgkzmQcl8DzhKu5-26" vertex="1">
          <mxGeometry width="203.33333333333334" height="40" as="geometry" />
        </mxCell>
        <mxCell id="zna02HgkzmQcl8DzhKu5-28" value="APPOINTMENT" style="rounded=0;whiteSpace=wrap;html=1;container=0;" parent="zna02HgkzmQcl8DzhKu5-26" vertex="1">
          <mxGeometry x="203.33333333333334" width="203.33333333333334" height="40" as="geometry" />
        </mxCell>
        <mxCell id="zna02HgkzmQcl8DzhKu5-29" value="PATIENT_BILL" style="rounded=0;whiteSpace=wrap;html=1;container=0;" parent="zna02HgkzmQcl8DzhKu5-26" vertex="1">
          <mxGeometry x="406.6666666666667" width="203.33333333333334" height="40" as="geometry" />
        </mxCell>
        <mxCell id="zna02HgkzmQcl8DzhKu5-34" value="ASSISTANTS" style="text;strokeColor=none;fillColor=none;html=1;fontSize=24;fontStyle=1;verticalAlign=middle;align=center;" parent="1" vertex="1">
          <mxGeometry x="40" y="810" width="180" height="40" as="geometry" />
        </mxCell>
        <mxCell id="zna02HgkzmQcl8DzhKu5-35" value="" style="group" parent="1" vertex="1" connectable="0">
          <mxGeometry x="40" y="850" width="600" height="40" as="geometry" />
        </mxCell>
        <mxCell id="zna02HgkzmQcl8DzhKu5-36" value="BATCH_NO" style="rounded=0;whiteSpace=wrap;html=1;container=0;" parent="zna02HgkzmQcl8DzhKu5-35" vertex="1">
          <mxGeometry width="299.99999999999994" height="40" as="geometry" />
        </mxCell>
        <mxCell id="zna02HgkzmQcl8DzhKu5-37" value="WARD_NO" style="rounded=0;whiteSpace=wrap;html=1;container=0;" parent="zna02HgkzmQcl8DzhKu5-35" vertex="1">
          <mxGeometry x="300" width="299.99999999999994" height="40" as="geometry" />
        </mxCell>
        <mxCell id="bXkhy2UbyFrjoCJaevwZ-3" style="edgeStyle=orthogonalEdgeStyle;rounded=0;orthogonalLoop=1;jettySize=auto;html=1;" parent="1" source="zna02HgkzmQcl8DzhKu5-17" target="zna02HgkzmQcl8DzhKu5-11" edge="1">
          <mxGeometry relative="1" as="geometry" />
        </mxCell>
        <mxCell id="bXkhy2UbyFrjoCJaevwZ-4" style="edgeStyle=orthogonalEdgeStyle;rounded=0;orthogonalLoop=1;jettySize=auto;html=1;entryX=0;entryY=0.383;entryDx=0;entryDy=0;entryPerimeter=0;" parent="1" source="zna02HgkzmQcl8DzhKu5-16" target="zna02HgkzmQcl8DzhKu5-10" edge="1">
          <mxGeometry relative="1" as="geometry">
            <Array as="points">
              <mxPoint x="50" y="240" />
              <mxPoint x="50" y="93" />
            </Array>
          </mxGeometry>
        </mxCell>
        <mxCell id="bXkhy2UbyFrjoCJaevwZ-5" style="edgeStyle=orthogonalEdgeStyle;rounded=0;orthogonalLoop=1;jettySize=auto;html=1;entryX=0.5;entryY=1;entryDx=0;entryDy=0;" parent="1" source="zna02HgkzmQcl8DzhKu5-20" target="zna02HgkzmQcl8DzhKu5-17" edge="1">
          <mxGeometry relative="1" as="geometry" />
        </mxCell>
        <mxCell id="bXkhy2UbyFrjoCJaevwZ-6" style="edgeStyle=orthogonalEdgeStyle;rounded=0;orthogonalLoop=1;jettySize=auto;html=1;exitX=0.5;exitY=0;exitDx=0;exitDy=0;entryX=0.5;entryY=1;entryDx=0;entryDy=0;" parent="1" source="zna02HgkzmQcl8DzhKu5-23" target="zna02HgkzmQcl8DzhKu5-20" edge="1">
          <mxGeometry relative="1" as="geometry">
            <Array as="points">
              <mxPoint x="220" y="440" />
              <mxPoint x="220" y="440" />
            </Array>
          </mxGeometry>
        </mxCell>
        <mxCell id="bXkhy2UbyFrjoCJaevwZ-7" style="edgeStyle=orthogonalEdgeStyle;rounded=0;orthogonalLoop=1;jettySize=auto;html=1;entryX=0.5;entryY=1;entryDx=0;entryDy=0;" parent="1" source="zna02HgkzmQcl8DzhKu5-28" target="zna02HgkzmQcl8DzhKu5-24" edge="1">
          <mxGeometry relative="1" as="geometry" />
        </mxCell>
        <mxCell id="zna02HgkzmQcl8DzhKu5-30" value="TESTS" style="text;strokeColor=none;fillColor=none;html=1;fontSize=24;fontStyle=1;verticalAlign=middle;align=center;" parent="1" vertex="1">
          <mxGeometry x="-10" y="680" width="180" height="40" as="geometry" />
        </mxCell>
        <mxCell id="bXkhy2UbyFrjoCJaevwZ-12" style="edgeStyle=orthogonalEdgeStyle;rounded=0;orthogonalLoop=1;jettySize=auto;html=1;entryX=0.5;entryY=1;entryDx=0;entryDy=0;" parent="1" source="zna02HgkzmQcl8DzhKu5-3" target="zna02HgkzmQcl8DzhKu5-27" edge="1">
          <mxGeometry relative="1" as="geometry">
            <mxPoint x="170" y="670" as="targetPoint" />
          </mxGeometry>
        </mxCell>
      </root>
    </mxGraphModel>
  </diagram>
</mxfile>
